<svg width="130" height="130" viewBox="0 0 130 130" fill="none" xmlns="http://www.w3.org/2000/svg">
<mask id="mask0_839_100" style="mask-type:alpha" maskUnits="userSpaceOnUse" x="1" y="1" width="128" height="128">
<circle cx="65" cy="65" r="64" fill="#D9D9D9"/>
</mask>
<g mask="url(#mask0_839_100)">
</g>
<g clip-path="url(#clip0_839_100)">
<path d="M65 130C100.899 130 130 100.899 130 65C130 29.1015 100.899 0 65 0C29.1015 0 0 29.1015 0 65C0 100.899 29.1015 130 65 130Z" fill="#F0F0F0"/>
<path d="M62.1741 65.0001H130C130 59.1333 129.218 53.4499 127.761 48.0435H62.1741V65.0001Z" fill="#D80027"/>
<path d="M62.1741 31.087H120.46C116.481 24.5941 111.393 18.8551 105.462 14.1304H62.1741V31.087Z" fill="#D80027"/>
<path d="M65.0001 130C80.2977 130 94.3582 124.713 105.462 115.87H24.5386C35.6419 124.713 49.7025 130 65.0001 130Z" fill="#D80027"/>
<path d="M9.54033 98.9129H120.46C123.654 93.7005 126.132 88.0028 127.761 81.9563H2.23926C3.86857 88.0028 6.34594 93.7005 9.54033 98.9129Z" fill="#D80027"/>
<path d="M30.1092 10.1507H36.0326L30.5228 14.1535L32.6275 20.6304L27.118 16.6276L21.6084 20.6304L23.4264 15.0351C18.5753 19.076 14.3234 23.8103 10.8195 29.0855H12.7174L9.21019 31.6334C8.66379 32.5449 8.13973 33.4709 7.6375 34.4106L9.31227 39.5652L6.1877 37.295C5.411 38.9406 4.70057 40.6232 4.06199 42.3409L5.90713 48.0203H12.7174L7.20764 52.0231L9.31227 58.5L3.80275 54.4972L0.50248 56.8951C0.172148 59.5504 0 62.255 0 65H65C65 29.1017 65 24.8696 65 0C52.1595 0 40.1896 3.7248 30.1092 10.1507ZM32.6275 58.5L27.118 54.4972L21.6084 58.5L23.7131 52.0231L18.2033 48.0203H25.0136L27.118 41.5434L29.2223 48.0203H36.0326L30.5228 52.0231L32.6275 58.5ZM30.5228 33.0883L32.6275 39.5652L27.118 35.5624L21.6084 39.5652L23.7131 33.0883L18.2033 29.0855H25.0136L27.118 22.6086L29.2223 29.0855H36.0326L30.5228 33.0883ZM55.9427 58.5L50.4331 54.4972L44.9236 58.5L47.0283 52.0231L41.5185 48.0203H48.3288L50.4331 41.5434L52.5375 48.0203H59.3478L53.838 52.0231L55.9427 58.5ZM53.838 33.0883L55.9427 39.5652L50.4331 35.5624L44.9236 39.5652L47.0283 33.0883L41.5185 29.0855H48.3288L50.4331 22.6086L52.5375 29.0855H59.3478L53.838 33.0883ZM53.838 14.1535L55.9427 20.6304L50.4331 16.6276L44.9236 20.6304L47.0283 14.1535L41.5185 10.1507H48.3288L50.4331 3.67377L52.5375 10.1507H59.3478L53.838 14.1535Z" fill="#0052B4"/>
</g>
<defs>
<clipPath id="clip0_839_100">
<rect width="130" height="130" fill="white"/>
</clipPath>
</defs>
</svg>
